<?xml version="1.0" encoding="UTF-8"?>
<svg version="1.1" viewBox="0 0 1192 1176" width="298" height="294" xmlns="http://www.w3.org/2000/svg">
<path transform="translate(0)" d="m0 0h1192v1176h-1192z" fill="#FCFDFD"/>
<path transform="translate(582,367)" d="m0 0h32l23 4 29 9 14 6 4 1 79 1 2 4 1 80 72 1 3 2-2 5-29 1h-39l1 6h97l3 2v7l-5 1h-546l-1-4 1-5 3-1h95l1-6h-64l-4-1v-6l2-1h73l1-83 3-2 79-1 19-8 16-5 21-5z" fill="#54BECD"/>
<path transform="translate(740,615)" d="m0 0 130 1 4 2-2 4-3 2-14 1-84 1v6h68l2 1-1 5-4 1h-70l-1 70-1 14-80 1-5 3-10 4-23 8-25 5-7 1h-34l-24-4-22-6-18-7-6-3-4-1h-70l-7-1-1-1-1-83h-74l-1-6 1-1 67-1v-6h-98l-1-8 1-1z" fill="#54BECD"/>
<path transform="translate(580,375)" d="m0 0h35l29 6 20 7 15 6 4 1h62l10 1 1 76 6 11v4h-10l-5-3-11-18-10-14-2-2v-3l13-2 3-3-2-5-3-1 2-5 6-10 4-9v-8l-12 3-8 4-9 8h-3l-2-8h-3l-3 9-2 8-5-2-16-11-14-8-16-7-25-7-18-3h-28l-23 3-20 6-17 7-21 13-11 8-4-1-4-11v-4h-4v9h-4l-8-8-9-5-14-3 2 11 11 19v3l-6 1 2 6 3 1 11 1 1 4-7 9-9 13-8 13-3 2h-8l-2-1 1-6 4-7 1-4v-73l68-1 11-2 21-8 20-6z" fill="#FBFDFD"/>
<path transform="translate(431,625)" d="m0 0h8l7 2 7 13 10 14 6 8v3l-10 2h-7l2 4 4 3-1 5-6 9-5 11-2 9 13-3 10-5 7-7h3l1 7 5-1 3-8 1-7 5 2 20 13 16 8 19 8 15 4 18 3h34l21-4 16-5 17-7 16-9 15-11 4-2 3 3 3 10v3h5l1-9 4 2 4 5 16 8 9 1-3-12-8-16-1-3 3-5v-3l-13-2-2-1 2-6 8-9 9-14 5-9 5-2h10l-1 5-6 12v71l-3 3-71 1-13 5-16 6-22 6-19 2h-31l-14-2-20-4-16-5-16-7-2-1-74-1-2-7v-61l-2-10-4-10z" fill="#F1FEFE"/>
<path transform="translate(593,397)" d="m0 0 14 1 9 3 9 6 9 10 6 12 2 11-1 12-5 14-5 6-5 5-12 8-10 2h-15l-9-1-10-6-8-7-7-11-3-6-1-5v-15l4-12 7-11 8-8 13-6z" fill="#FBFDFD"/>
<path transform="translate(583,626)" d="m0 0h26l8 3 8 6 9 9 6 12 1 3v19l-5 13-8 11-7 6-8 4-9 2h-16l-13-4-10-7-8-11-5-11-1-4v-14l3-10 6-10 8-9 9-6z" fill="#FBFDFD"/>
<path transform="translate(644,625)" d="m0 0h93l1 3-13 20-10 13-12 13-13 11-16 10-12 6-18 7-7 2h-5l1-4 8-9 5-11 2-12v-9l-2-12-7-14-9-10-2-3z" fill="#FCFDFD"/>
<path transform="translate(634,402)" d="m0 0 9 2 20 8 19 10 14 10 12 11 8 8 12 16 10 15 1 4-2 1h-109v-3l7-6 8-10 4-9 2-11v-10l-4-15-6-12-5-6z" fill="#FCFDFD"/>
<path transform="translate(558,401)" d="m0 0h3l-2 4-6 7-5 9-4 11-1 4v10l3 12 7 14 12 13v2h-107l-4-1 1-4 10-15 10-13 12-14 15-12 14-9 15-8 23-9z" fill="#FCFDFD"/>
<path transform="translate(459,625)" d="m0 0h107l-12 12-8 14-3 10v14l3 12 7 13 8 9v2l-8-1-14-6-17-7-15-9-12-9-10-9-9-10-10-13-11-18v-3z" fill="#FCFDFD"/>
<path transform="translate(431,625)" d="m0 0h8l7 2 7 13 10 14 6 8v3l-10 2h-7l2 4 4 3-1 5-6 9-5 11-2 9 13-3 10-5 7-7h3l1 7 5-1 3-8 3-3 5 1 4 4 4 2 1 3 1 1 5 2 11 6 4 2 5 1 1 3 6-1 3 3 7 1 6 3 8 1 5 2 21 2 12 1 5 1 1-1h18l11-3 18-3 19-7 7-3h6l-1 3-5 3h-6l-6 5-7 3-8 3-15 4h-5l4-2 11-4h2v-2l-8 2-15 3-3 1h-10v3h-3l-1 2v-2l-2 2h-25l-26-3-19-5-12-5-9-4h-75l-2-7v-61l-2-10-4-10z" fill="#FBFDFD"/>
<path transform="translate(593,381)" d="m0 0h32l4 2v-2l7 1 3 3 16 1 6 2 8 2 10 4 4 1h62l10 1 1 76 6 11v4h-10l-5-3-11-18-10-14-2-2v-3l13-2 3-3-2-5-3-1 2-5 6-10 4-9v-8l-12 3-8 4-9 8h-3l-2-8h-3l-3 9-2 8-5-2-16-11-14-8-16-7-3-1-2-4-5-2-8-3-8-2-3-1-2 1-10-1-15-1z" fill="#FBFDFD"/>
<path transform="translate(594,636)" d="m0 0 7 1 5 5 14 10 5 7 1 6 5 3-1 4-3 1-3 15-4 6-5 5-6 3-17 1-13-3-8-7-4-10-1-10-5-2 1-3 4-2 3-11 8-7 15-10z" fill="#54BECD"/>
<path transform="translate(562,413)" d="m0 0 3 1 2 3v7l4 2 11 9 10 6 3 4-9 7-13 11-3 3v6l5-2 6-5 7-8 8-8 5 1 7 7v2l3 1 7 8 3 3 7 2-3 5-11 7-10 2h-15l-9-1-10-6-8-7-7-11-3-6-1-5v-15l4-12z" fill="#FBFDFD"/>
<path transform="translate(313,519)" d="m0 0h15l10 4 7 8 2 5-1 7-5 8-9 8 1 4 7 10 6 8 11 10-1 2h-11l-5-3-10-14-8-14-7-2v19l1 6 5 3 1 4h-26v-4l6-4 1-2v-55l-6-4 1-3z" fill="#54BECD"/>
<path transform="translate(676,519)" d="m0 0 6 2 10 16 7 10 14 22 2 1v-44l-5-1-2-4 1-1h22v4l-4 2-1 3-1 30-3 36-5-1-10-16-7-10-10-15-9-12-5-5 1 8v41h7l2 3v4h-22l-2-1 1-4 5-1 1-9 1-49-11-6 1-2z" fill="#54BECD"/>
<path transform="translate(416,518)" d="m0 0 5 1 7 20 12 38 4 6 7 8v1h-31v-4l7-3h2l-3-18-1-1-23-1-3 12v7l1 2 9 1 1 4-1 1h-27l1-5 7-11 8-18 6-16 7-18 3-5z" fill="#54BECD"/>
<path transform="translate(489,688)" d="m0 0 5 1 4 4 4 2 1 3 1 1 5 2 11 6 4 2 5 1 1 3 6-1 3 3 7 1 6 3 8 1 5 2 21 2 12 1 5 1 1-1h18l11-3 18-3 19-7 7-3h6l-1 3-5 3h-6l-6 5-7 3-8 3-15 4h-5l4-2 11-4h2v-2l-8 2-15 3-3 1h-10v3h-3l-1 2v-2l-2 2h-25l-26-3-19-5-12-5-9-4-6-2-6-1-18-1-11-1 1-2h9l-4-2 2-5h2l2-9z" fill="#FCFDFD"/>
<path transform="translate(793,519)" d="m0 0h27l1 3-5 17-5-1-1-9-4-2h-17l-1 6v17h9l13-1 1 2-1 7-2 1-21 1v24l6 1h11l7-4 6-10h4v8l-4 13-10 1h-19l-21-1 1-5 8-2v-59l-8-3 1-3z" fill="#54BECD"/>
<path transform="translate(611,519)" d="m0 0 11 1-4 19-2 1-2-1-2-11-2-1-20-1 1 24h14l7-1 1 1v8l-1 1h-23l1 23 1 3h16l5-3 6-8 1-3 4 1 1 3-2 9-3 7-1 1h-49l-1-4 7-3 3-1v-58l-6-2-1-4z" fill="#54BECD"/>
<path transform="translate(494,519)" d="m0 0h6v5l-5 2h-6l6 21 7 27v4h3l1-5 12-33 5-13-12-2-3-2v-3l8-1h21l2 2-7 8-6 12-11 28-7 16-4 7h-7l-2-7-14-47-5-9-5-4-4-3v-2z" fill="#54BECD"/>
<path transform="translate(580,375)" d="m0 0h35l29 6 20 7-3 1-9-2-13-1-6-4-4-1v2l-4-1h-30l3 3 15 1 10 1 3-1 4 2 9 2 12 6v2l-10-2-23-5-7-1h-28l-23 3-20 6-15 6-2-1 4-3 5-2 7-6 2-1-3-2h-1l-7 1-3 2h-8l4-3 30-10 21-4z" fill="#F1FEFE"/>
<path transform="translate(879,519)" d="m0 0h15l10 3v4l-2 10-2 6h-4l-1-14-1-1-7-1h-10l-5 5-2 3 1 5 7 6 17 10 8 7 3 7-2 9-5 7-9 6-6 2h-13l-9-4-1-1v-18l1-3 4 1 2 13 4 4 2 1h10l6-3 5-5v-8l-15-10-11-7-6-5-2-4v-8l4-9 7-6z" fill="#54BECD"/>
<path transform="translate(572,414)" d="m0 0h5l13 14 6 10h3l3-10 7-9 5-4 2-1h6l5 4v7l-6 9-5 4-8 4h-6v3l11 9 9 8 4 5 2 6-7-1-10-10-7-8-4-4-5 1-12 12-4 5-5 4h-4l-1-6 8-8 11-9 6-5-6-5-9-5-11-10 1-7z" fill="#54BECD"/>
<path transform="translate(229,519)" d="m0 0h16l10 2 2 2v7l-2 10-2 2-4-1-3-12-8-3-13 1-9 6-6 10-2 11 1 10 4 9 6 8 6 4 3 1h10l7-4 6-8 4-7 3 1v7l-3 9-8 7-9 2h-11l-10-3-6-4-5-5-6-9-2-7v-14l3-10 7-11 9-7 7-3z" fill="#54BECD"/>
<path transform="translate(753,625)" d="m0 0h10l-1 5-5 9h-2l-1 37v23l-2 2h-5l-5-13-6-12 3-5v-3l-13-2-2-1 2-6 8-9 9-14 5-9z" fill="#FBFDFD"/>
<path transform="translate(944,519)" d="m0 0 52 1 1 5v14l-4 1-1-1-2-11-2-1-14-1v58l11 3v3l-1 1h-32l-1-3 3-2 8-2 1-3v-55h-15l-3 12-4 2-1-5 2-15z" fill="#54BECD"/>
<path transform="translate(620,632)" d="m0 0 4 2 10 10 6 12 1 3v19l-5 13-8 11-7 6-8 4-9 2h-16l-8-2 4-1 10 1 6-1 2 1v-2l6-1 1-4h-16l-9-2-2-2 16 1 11-1 8-4 6-9 3-13 4-4v-3l-2-2 7-2v-10l-4-8v-2l-4-2v-2l-3 1-3-7z" fill="#F1FEFE"/>
<path transform="translate(593,381)" d="m0 0h32l4 2v-2l7 1 3 3 16 1 6 2 8 2 4 4v2l3 1 14 1 4 2h10l8-1v2l-10 4-3 5h-5l-3-2-1-5-6-2 2 4-1 1h-10l-14-3-10-4-2-4-5-2-8-3-8-2-3-1-2 1-10-1-15-1z" fill="#FCFDFD"/>
<path transform="translate(474,693)" d="m0 0h3l1 7h5v2h-2l-1 5 12 2v1h-18l21 2h10l8 3v1h-74l-2-7v-8l2 4 2 3h2v-6h1v6l13-3 10-5z" fill="#FCFDFD"/>
<path transform="translate(644,625)" d="m0 0h93v1l-14 1h-32l-38 1-4 1h-3l-5 2 2 9 3 5 3 3 2 11 2 3v3h-2v13h1v11l-3 11v2l5-1 3-2 7-2 4 1-13 6-18 6h-5l1-4 8-9 5-11 2-12v-9l-2-12-7-14-9-10-2-3z" fill="#F1FEFE"/>
<path transform="translate(840,477)" d="m0 0 1 3-1 3 9 2 20 1v1l-26 1h-71l-2-4 1-4h39l29-1z" fill="#F1FFFF"/>
<path transform="translate(317,525)" d="m0 0 9 1 7 3 4 6v8l-4 7-5 4h-13l-1-4v-17l1-7z" fill="#FBFDFD"/>
<path transform="translate(320,617)" d="m0 0 2 3 1 4h30l67 1 1 6-1 1-68 1-1-5-6-1h-13l-11-1-1-1z" fill="#F1FFFF"/>
<path transform="translate(870,622)" d="m0 0 2 1-2 2-4 1-15 1-9 3-1 3-70-1v-6l2-1 82-1 14-1z" fill="#F1FFFF"/>
<path transform="translate(682,400)" d="m0 0 7 1 3 4-1 3 8 1 4-6 9-2-3 4 3 5-2 1-3 9-2 8-5-2-16-11-14-8-4-3 9 1h10l-1-3z" fill="#F1FEFE"/>
<path transform="translate(352,480)" d="m0 0h68l1 5-3 3h-96l1-2h30v-4z" fill="#F1FEFE"/>
<path transform="translate(587,612)" d="m0 0h32v1l-6 1 73 1 1-2 8 1 45 1v1h-264v-1l110-1z" fill="#F1FFFF"/>
<path transform="translate(437,701)" d="m0 0 2 4 2 3h2v-6h1v6h6l6 5 9-1 8-1h11l18 1 7 1 4 2v1h-74l-2-7z" fill="#F1FFFF"/>
<path transform="translate(413,533)" d="m0 0 3 3 6 16v7l-7 1-10-1 1-6 5-15z" fill="#FAFDFD"/>
<path transform="translate(578,671)" d="m0 0h5l2 2 1 12 3 4v5l-7 1-6-5-3-8v-8z" fill="#FBFDFD"/>
<path transform="translate(615,698)" d="m0 0h2l-1 4h6l7-3-2 4-9 7-9 3-5 1h-16l-8-2 4-1 10 1 6-1 2 1v-2l6-1 1-4h-16l-9-2-2-2 16 1 11-1z" fill="#F1FEFE"/>
<path transform="translate(516,393)" d="m0 0h3l-1 3-4 2h-31v1h-7v-2l-4 1-29-1 1 3 2-1v3l3 2h-5v8l-2-2h-3v14l-2 1v-29l68-1z" fill="#F1FEFE"/>
<path transform="translate(809,481)" d="m0 0h21l1 4 6 1v1h-51l1-4 2-1z" fill="#FDFDFD"/>
<path transform="translate(626,675)" d="m0 0 4 1 2 2v10l-2 9-5 5-7 1-3-1v-2h2l1-5 4-5z" fill="#FCFDFD"/>
<path transform="translate(459,625)" d="m0 0h107l-3 3-44-1h-24l-37 1 1 6-3-3-1-5z" fill="#F1FFFF"/>
<path transform="translate(676,536)" d="m0 0 4 2 10 14h-3l-5-2-3-2v32l6 4 4 4-1 4h-2l-2-6-7-1-1-2z" fill="#F1FEFE"/>
<path transform="translate(671,392)" d="m0 0 12 3 47 1v1l-8 1-4 1h-3l-11 2h-10l-4-2-16-1z" fill="#F1FFFF"/>
<path transform="translate(402,565)" d="m0 0h23l2 2 2 12v6l-9 4v2l31 1v1l-26 1-7-2 1-5 4-4 1 1 2-4-1-10-9-2-7-1 3 2h-7v-2l-4 3z" fill="#F1FEFE"/>
<path transform="translate(640,472)" d="m0 0v3l-4 7-1 4 3-1 99 1v1h-109v-3l7-6z" fill="#F1FEFE"/>
<path transform="translate(583,626)" d="m0 0h26l8 3 3 3-3 1-6-3-17-1-3 1-11 1-5 3-6 2-1-2 9-6z" fill="#F2FEFE"/>
<path transform="translate(716,692)" d="m0 0 4 2v2h-2v5l6 4 9 2 1 5h-9l-11-3-2-3 4-9z" fill="#FCFDFD"/>
<path transform="translate(634,402)" d="m0 0 9 2 18 7-1 2-5-1-9-2h-2l1 4 3 6v6h-2l-5-12-7-9z" fill="#F1FEFE"/>
<path transform="translate(684,723)" d="m0 0h80v1l-7 1h-67l-1 1h-6l-1-2z" fill="#F1FFFF"/>
<path transform="translate(700,411)" d="m0 0 4 1 2 8-1 8-5-2-4-3-1-5-3-5 1-1z" fill="#FBFDFD"/>
<path transform="translate(474,693)" d="m0 0h3l1 7h5v2h-2l-1 5 12 2v1h-11l-7-1 1-3-3-3-5-2 6-7z" fill="#F2FEFE"/>
<path transform="translate(561,482)" d="m0 0 4 3v2h-107v-1h104z" fill="#F1FFFF"/>
<path transform="translate(411,538)" d="m0 0h1v9l-3 5-1 3 8 1 3-3h-1v-5l2-1 2 5v7l-7 1-10-1 1-6z" fill="#F1FFFF"/>
<path transform="translate(627,410)" d="m0 0 5 5 6 9 3 9v5l-4-5 1-3-3-6-7-2-1 3-1-7-1-2h2z" fill="#F1FEFE"/>
<path transform="translate(544,684)" d="m0 0 2 3 7 13 8 9v2l-8-1-6-3 2-2h1l1-5-2-1-5-11z" fill="#F1FFFF"/>
<path transform="translate(569,592)" d="m0 0h49l-1 2h-35v1h-9l-4-2z" fill="#F1FFFF"/>
<path transform="translate(637,740)" d="m0 0 4 1-8 3-9 1-6 1-17 1h-13l-8-1v-1l34-1z" fill="#F1FFFF"/>
<path transform="translate(589,567)" d="m0 0h1l1 16h12l9-3 6-9 1 3-6 8-3 3-6 1h-13l-2-4z" fill="#F1FFFF"/>
<path transform="translate(625,691)" d="m0 0h3l1 8-6 4h-8v-3h2v-2h2l1-3z" fill="#FCFDFD"/>
<path transform="translate(585,649)" d="m0 0h4v7l-3 3-10 1 1-4 5-5z" fill="#F1FEFE"/>
<path transform="translate(692,556)" d="m0 0 4 4 9 14-1 2-1-1-2 2-4-8-3-3-3-9z" fill="#F6FEFE"/>
<path transform="translate(593,397)" d="m0 0 14 1-3 3h-11l-4-1-10 3h-3l4-3 6-2z" fill="#F1FEFE"/>
<path transform="translate(597,634)" d="m0 0h4l2 3-2 1-7-1-9 7-4 1 2-5 5-5z" fill="#F5FEFE"/>
<path transform="translate(411,585)" d="m0 0 4 4v5l-34-1v-4l1 3 27-1v-5z" fill="#F1FFFF"/>
<path transform="translate(625,678)" d="m0 0 2 1 2 6-3 4 3 1v7h-1v-6l-5 3-4 4-2-1 6-9z" fill="#F1FEFE"/>
<path transform="translate(584,673)" d="m0 0h1l1 12 3 4v5l-7 1-3-3h3v-2h2z" fill="#F1FFFF"/>
<path transform="translate(679,726)" d="m0 0 1 2-18 8-9 2-6 2h-6v-1l17-5 16-6z" fill="#F1FFFF"/>
<path transform="translate(732,652)" d="m0 0 1 3-2 5v3l2-1v3l2 1h-9l-2-1 2-6z" fill="#F3FEFE"/>
<path transform="translate(675,407)" d="m0 0h7l6 4 1 5-7-2-6-4z" fill="#F9FDFD"/>
<path transform="translate(600,450)" d="m0 0 7 6 1 3 3 1 1 3-7-2-5-4-1-6z" fill="#F2FEFE"/>
<path transform="translate(509,410)" d="m0 0 4 2-12 8-3 1 2-7 5-3z" fill="#F1FEFE"/>
<path transform="translate(715,528)" d="m0 0h1v40l-1 2-3-1-2-5 5 1z" fill="#F1FEFE"/>
<path transform="translate(568,466)" d="m0 0 2 4v2l4 1-2 4 1 4-7-4-4-4 1-2 4 2v-6z" fill="#F1FFFF"/>
<path transform="translate(585,627)" d="m0 0h7l-2 2h-10l-1 3-7 3h-4l5-5 4-2z" fill="#F6FEFE"/>
<path transform="translate(609,545)" d="m0 0 1 2 3 1-1 2-10 1h-11l-1-5 1 3 8-1h7l1-2 2 1z" fill="#F1FFFF"/>
<path transform="translate(562,385)" d="m0 0h5l-3 2-11 4-5-1 4-4z" fill="#FDFDFD"/>
<path transform="translate(572,404)" d="m0 0 2 1-3 3 2 1v2l-5 2-2 4-3-5 7-7z" fill="#F1FEFE"/>
<path transform="translate(465,701)" d="m0 0h2l-1 3-4 2-2 3-10-1 4-2z" fill="#F2FEFE"/>
<path transform="translate(493,435)" d="m0 0 2 1-17 17v-3l10-11z" fill="#F5FEFE"/>
<path transform="translate(723,574)" d="m0 0h1l1 21-6 1 3-1z" fill="#F1FFFF"/>
<path transform="translate(729,446)" d="m0 0h2l-1 10-5-5-1-4z" fill="#F3FEFE"/>
<path transform="translate(708,407)" d="m0 0 2 1-1 7-1 2h-2l-1-9z" fill="#FAFDFD"/>
<path transform="translate(702,574)" d="m0 0 6 4 2 3v3l-5-2-3-5z" fill="#F7FDFD"/>
<path transform="translate(696,562)" d="m0 0 4 4 5 8-1 2-1-1-2 2-3-6h2l-4-7z" fill="#F2FEFE"/>
<path transform="translate(622,462)" d="m0 0 3 1 3 4 5 1-2 4-3 1-5-8z" fill="#F1FFFF"/>
<path transform="translate(520,517)" d="m0 0h16l1 2-7 1-14-1z" fill="#F1FEFE"/>
<path transform="translate(810,529)" d="m0 0h1l1 9 4 1 1-3v4l-5 4-2-4z" fill="#F1FFFF"/>
<path transform="translate(597,634)" d="m0 0h4l2 3-2 1-7-1-6 5-2-1 4-4h2v-2z" fill="#F1FEFE"/>
<path transform="translate(368,483)" d="m0 0h8l3 2-1 1h-12l2-1z" fill="#FDFDFD"/>
<path transform="translate(704,518)" d="m0 0 5 1-2 5v2l3 1-5-1-1-1z" fill="#F1FEFE"/>
<path transform="translate(478,411)" d="m0 0h1v9h-4l-3-4 5-1z" fill="#F1FFFF"/>
<path transform="translate(575,411)" d="m0 0 2 3-6 2-2 3-1 5h-1v-7l4-5z" fill="#F1FFFF"/>
<path transform="translate(441,709)" d="m0 0h7l2 5-6-2h-5v-2z" fill="#FDFDFD"/>
<path transform="translate(506,570)" d="m0 0 1 3-2 5h-3l-1-7z" fill="#F1FEFE"/>
<path transform="translate(626,598)" d="m0 0 5 1v3l-6 1-1-2z" fill="#F1FFFF"/>
<path transform="translate(582,419)" d="m0 0h2l2 3 2-1 4 8-1 2-9-10z" fill="#F1FEFE"/>
<path transform="translate(728,661)" d="m0 0h2l1 2 2-1v3l2 1h-9z" fill="#F1FFFF"/>
</svg>
